HIERARCHY
ROOT Hips
{
	OFFSET 0.00000 0.00000 0.00000
	CHANNELS 6 Xposition Yposition Zposition Zrotation Yrotation Xrotation 
	JOINT LHipJoint
	{
		OFFSET 0 0 0
		CHANNELS 3 Zrotation Yrotation Xrotation
		JOINT LeftUpLeg
		{
			OFFSET 1.37959 -1.78713 0.86582
			CHANNELS 3 Zrotation Yrotation Xrotation
			JOINT LeftLeg
			{
				OFFSET 2.54611 -6.99539 0.00000
				CHANNELS 3 Zrotation Yrotation Xrotation
				JOINT LeftFoot
				{
					OFFSET 2.59951 -7.14211 0.00000
					CHANNELS 3 Zrotation Yrotation Xrotation
					JOINT LeftToeBase
					{
						OFFSET 0.18493 -0.50810 1.96120
						CHANNELS 3 Zrotation Yrotation Xrotation
						End Site
						{
							OFFSET 0.00000 -0.00000 1.02054
						}
					}
				}
			}
		}
	}
	JOINT RHipJoint
	{
		OFFSET 0 0 0
		CHANNELS 3 Zrotation Yrotation Xrotation
		JOINT RightUpLeg
		{
			OFFSET -1.33564 -1.78713 0.86582
			CHANNELS 3 Zrotation Yrotation Xrotation
			JOINT RightLeg
			{
				OFFSET -2.52705 -6.94302 0.00000
				CHANNELS 3 Zrotation Yrotation Xrotation
				JOINT RightFoot
				{
					OFFSET -2.55964 -7.03257 0.00000
					CHANNELS 3 Zrotation Yrotation Xrotation
					JOINT RightToeBase
					{
						OFFSET -0.25804 -0.70896 2.12109
						CHANNELS 3 Zrotation Yrotation Xrotation
						End Site
						{
							OFFSET -0.00000 -0.00000 1.11821
						}
					}
				}
			}
		}
	}
	JOINT LowerBack
	{
		OFFSET 0 0 0
		CHANNELS 3 Zrotation Yrotation Xrotation
		JOINT Spine
		{
			OFFSET -0.02031 2.24248 -0.18900
			CHANNELS 3 Zrotation Yrotation Xrotation
			JOINT Spine1
			{
				OFFSET 0.08342 2.24689 -0.03799
				CHANNELS 3 Zrotation Yrotation Xrotation
				JOINT Neck
				{
					OFFSET 0 0 0
					CHANNELS 3 Zrotation Yrotation Xrotation
					JOINT Neck1
					{
						OFFSET -0.11607 1.55844 0.24628
						CHANNELS 3 Zrotation Yrotation Xrotation
						JOINT Head
						{
							OFFSET 0.06877 1.60174 -0.17013
							CHANNELS 3 Zrotation Yrotation Xrotation
							End Site
							{
								OFFSET 0.03358 1.61266 -0.08543
							}
						}
					}
				}
				JOINT LeftShoulder
				{
					OFFSET 0 0 0
					CHANNELS 3 Zrotation Yrotation Xrotation
					JOINT LeftArm
					{
						OFFSET 3.47537 0.55866 -0.72348
						CHANNELS 3 Zrotation Yrotation Xrotation
						JOINT LeftForeArm
						{
							OFFSET 5.38154 -0.00000 0.00000
							CHANNELS 3 Zrotation Yrotation Xrotation
							JOINT LeftHand
							{
								OFFSET 3.33312 -0.00000 0.00000
								CHANNELS 3 Zrotation Yrotation Xrotation
								JOINT LeftFingerBase
								{
									OFFSET 0 0 0
									CHANNELS 3 Zrotation Yrotation Xrotation
									JOINT LeftHandIndex1
									{
										OFFSET 0.71079 -0.00000 0.00000
										CHANNELS 3 Zrotation Yrotation Xrotation
										End Site
										{
											OFFSET 0.57306 -0.00000 0.00000
										}
									}
								}
								JOINT LThumb
								{
									OFFSET 0 0 0
									CHANNELS 3 Zrotation Yrotation Xrotation
									End Site
									{
										OFFSET 0.58181 -0.00000 0.58181
									}
								}
							}
						}
					}
				}
				JOINT RightShoulder
				{
					OFFSET 0 0 0
					CHANNELS 3 Zrotation Yrotation Xrotation
					JOINT RightArm
					{
						OFFSET -3.27844 0.90739 -0.35708
						CHANNELS 3 Zrotation Yrotation Xrotation
						JOINT RightForeArm
						{
							OFFSET -5.16954 -0.00000 0.00000
							CHANNELS 3 Zrotation Yrotation Xrotation
							JOINT RightHand
							{
								OFFSET -3.38287 -0.00000 0.00000
								CHANNELS 3 Zrotation Yrotation Xrotation
								JOINT RightFingerBase
								{
									OFFSET 0 0 0
									CHANNELS 3 Zrotation Yrotation Xrotation
									JOINT RightHandIndex1
									{
										OFFSET -0.81797 -0.00000 0.00000
										CHANNELS 3 Zrotation Yrotation Xrotation
										End Site
										{
											OFFSET -0.65947 -0.00000 0.00000
										}
									}
								}
								JOINT RThumb
								{
									OFFSET 0 0 0
									CHANNELS 3 Zrotation Yrotation Xrotation
									End Site
									{
										OFFSET -0.66953 -0.00000 0.66953
									}
								}
							}
						}
					}
				}
			}
		}
	}
}
MOTION
Frames: 5
Frame Time: .0083333
7.1779 17.7760 4.9386 -179.0250 -3.7992 -180.2650 0.0000 0.0000 0.0000 -17.5110 -3.5443 -3.6515 2.0172 8.9018 25.4886 0.8100 -5.0922 -16.0536 0.2127 -2.9694 -8.1936 0.0000 0.0000 0.0000 17.5005 3.3281 -14.6057 -2.6273 -10.0657 29.1899 -0.4023 3.3683 -11.2994 -0.0330 -1.1723 3.2231 -4.1334 0.6413 2.8829 0.1398 0.7098 1.0983 2.4376 0.3343 -0.5408 -16.6699 -11.0822 -7.5807 9.7873 -16.0018 19.5631 4.0773 -8.2056 9.5513 -0.0000 0.0000 0.0000 -77.0654 -4.8331 23.9641 23.5027 -34.6340 -7.4220 -0.0000 -0.0000 6.9405 -0.1015 34.0142 -0.0568 -7.1250 0.0000 -0.0000 -37.5728 59.8442 -14.8618 -0.0000 0.0000 0.0000 87.6179 28.2902 42.5775 -24.7217 35.9182 -8.1261 0.0000 -0.0000 -38.3204 -26.0888 23.3817 -10.9967 7.1250 -0.0000 -0.0000 1.8888 -4.2851 1.7433
7.1395 17.7812 4.9569 -179.1020 -4.2161 -180.2700 0.0000 0.0000 0.0000 -17.7390 -3.5491 -3.6946 1.9901 8.8455 25.3132 0.7979 -5.3491 -15.9244 0.2608 -3.2858 -9.0754 0.0000 0.0000 0.0000 17.2285 2.9504 -14.6617 -2.6040 -10.0246 29.0564 -0.3901 3.2854 -11.1282 -0.0380 -1.2579 3.4587 -4.1961 0.6250 2.9631 0.1079 0.6806 1.1551 2.4406 0.3171 -0.5255 -17.1549 -11.2374 -7.6169 10.1015 -16.1824 19.4676 4.2246 -8.2845 9.6247 -0.0000 -0.0000 0.0000 -77.1527 -5.0080 23.4639 23.8230 -34.9765 -7.6049 -0.0000 -0.0000 7.2126 -0.0254 34.2598 -0.0143 -7.1250 0.0000 -0.0000 -37.7590 60.0565 -15.1435 -0.0000 -0.0000 0.0000 87.6820 27.4634 41.8413 -25.6277 36.8387 -8.6635 0.0000 -0.0000 -37.8943 -25.9708 23.1665 -10.8480 7.1250 -0.0000 -0.0000 1.9343 -4.5390 1.7762
7.1067 17.7779 4.9826 -179.4250 -4.4094 -180.2620 0.0000 0.0000 0.0000 -18.2207 -3.8950 -3.5815 1.9745 8.8128 25.2116 0.7866 -5.6204 -15.8069 0.1359 -2.3761 -6.5464 0.0000 0.0000 0.0000 16.7061 2.7527 -14.7447 -2.5817 -9.9849 28.9278 -0.3717 3.1391 -10.8651 -0.0377 -1.2526 3.4440 -4.5138 0.6994 3.0758 -0.0201 0.7591 1.2445 2.4838 0.3510 -0.5048 -17.3152 -11.4569 -7.6777 10.0751 -16.3219 19.0264 4.2152 -8.3304 9.5174 -0.0000 0.0000 0.0000 -77.1530 -5.0718 23.2449 24.3150 -35.4956 -7.8887 -0.0000 -0.0000 7.0804 0.2578 34.5259 0.1461 -7.1250 0.0000 -0.0000 -37.7711 60.3340 -15.4029 -0.0000 0.0000 0.0000 87.8410 26.4843 40.8920 -26.8670 38.0521 -9.4171 0.0000 -0.0000 -37.1203 -25.9337 23.1393 -10.8188 7.1250 -0.0000 -0.0000 1.9539 -4.5754 1.7928
7.0888 17.7789 5.0143 -179.1840 -4.3938 -180.1980 0.0000 0.0000 0.0000 -17.9576 -4.1227 -3.6397 1.9621 8.7867 25.1304 0.7620 -6.0969 -15.5625 0.0116 -0.6947 -1.9092 0.0000 0.0000 0.0000 16.8913 3.1670 -14.8022 -2.5743 -9.9718 28.8853 -0.3730 2.7674 -10.9148 -0.0372 -1.2445 3.4219 -4.3978 0.8977 3.1458 -0.0263 1.0231 1.2104 2.4013 0.4860 -0.5972 -15.6883 -11.3648 -7.9270 8.5061 -15.9113 18.6866 3.5067 -8.1287 9.1027 0.0000 0.0000 0.0000 -76.9590 -5.0172 23.4550 24.7913 -35.9899 -8.1669 -0.0000 -0.0000 6.6889 0.1453 34.7109 0.0828 -7.1250 0.0000 -0.0000 -38.0800 60.4529 -15.6608 0.0000 0.0000 0.0000 88.2747 25.3255 39.7149 -28.3314 39.4195 -10.3335 0.0000 -0.0000 -36.8133 -26.1259 22.9337 -10.8196 7.1250 -0.0000 -0.0000 1.8090 -4.7580 1.6535
7.0700 17.7861 5.0476 -178.9390 -4.5390 -180.0100 0.0000 0.0000 0.0000 -17.6910 -4.0725 -3.9805 1.9378 8.7352 24.9705 0.7327 -6.3999 -15.2745 0.0041 -0.4135 -1.1360 0.0000 0.0000 0.0000 17.0734 3.4816 -15.0553 -2.5867 -9.9938 28.9566 -0.3871 2.4241 -11.1654 -0.0319 -1.1536 3.1715 -4.2637 1.0063 3.1331 0.0036 1.1745 1.1360 2.3503 0.5662 -0.6758 -17.3503 -11.4092 -7.4482 10.4055 -16.3324 18.8430 4.3476 -8.3167 9.4462 -0.0000 0.0000 0.0000 -76.7803 -4.9425 23.5107 25.2470 -36.4554 -8.4362 -0.0000 -0.0000 6.3368 0.2142 34.5826 0.1216 -7.1250 0.0000 -0.0000 -37.8745 60.3683 -15.4839 -0.0000 0.0000 0.0000 88.6563 23.9641 38.6661 -30.2688 41.1227 -11.5860 0.0000 -0.0000 -36.6450 -26.8036 22.4861 -10.9362 7.1250 -0.0000 -0.0000 1.3313 -5.1057 1.2078
